# AST/ASF file generated using VICON BodyLanguage
# -----------------------------------------------
:version 1.10
:name VICON
:units
  mass 1.0
  length 0.45
  angle deg
:documentation
   .ast/.asf automatically generated from VICON data using
   VICON BodyBuilder and BodyLanguage model FoxedUp or BRILLIANT.MOD
:root
   order TX TY TZ RX RY RZ
   axis XYZ
   position 0 0 0  
   orientation 0 0 0 
:bonedata
  begin
     id 1 
     name lhipjoint
     direction 0.577973 -0.728611 0.367523 
     length 2.48544 
     axis 0 0 0  XYZ
  end
  begin
     id 2 
     name lfemur
     direction 0.34202 -0.939693 0  
     length 7.1921  
     axis 0 0 20  XYZ
    dof rx ry rz
    limits (-160.0 20.0)
           (-70.0 70.0)
           (-60.0 70.0)
  end
  begin
     id 3 
     name ltibia
     direction 0.34202 -0.939693 0   
     length 7.71059   
     axis 0 0 20   XYZ
    dof rx
    limits (-10.0 170.0)
  end
  begin
     id 4 
     name lfoot
     direction 0.089538 -0.246004 0.965124   
     length 2.19909   
     axis -90 7.62852e-016 20   XYZ
    dof rx rz
    limits (-45.0 90.0)
           (-70.0 20.0)
  end
  begin
     id 5 
     name ltoes
     direction 1.53544e-011 -4.21829e-011 1   
     length 1.10116   
     axis -90 7.62852e-016 20   XYZ
    dof rx
    limits (-90.0 20.0)
  end
  begin
     id 6 
     name rhipjoint
     direction -0.554414 -0.743062 0.374812   
     length 2.4371  
     axis 0 0 0  XYZ 
  end
  begin
     id 7 
     name rfemur
     direction -0.34202 -0.939693 0   
     length 7.47254   
     axis 0 0 -20   XYZ
    dof rx ry rz
    limits (-160.0 20.0)
           (-70.0 70.0)
           (-70.0 60.0)
  end
  begin
     id 8 
     name rtibia
     direction -0.34202 -0.939693 0   
     length 7.65855   
     axis 0 0 -20   XYZ
    dof rx
    limits (-10.0 170.0)
 end
 begin
     id 9 
     name rfoot
     direction -0.133779 -0.367555 0.92033   
     length 2.43006  
     axis -90 -7.62852e-016 -20   XYZ
    dof rx rz
    limits (-45.0 90.0)
           (-20.0 70.0)
  end
  begin
     id 10 
     name rtoes
     direction -1.53563e-011 -4.21889e-011 1   
     length 1.19625   
     axis -90 -7.62852e-016 -20   XYZ
    dof rx
    limits (-90.0 20.0)
  end
  begin
     id 11 
     name lowerback
     direction 0.0249066 0.998043 -0.0573585   
     length 2.08485   
     axis 0 0 0   XYZ
    dof rx ry rz
    limits (-20.0 45.0)
           (-30.0 30.0)
           (-30.0 30.0)
  end
  begin
     id 12 
     name upperback
     direction 0.0237884 0.999673 0.00943178   
     length 2.08515   
     axis 0 0 0   XYZ
    dof rx ry rz
    limits (-20.0 45.0)
           (-30.0 30.0)
           (-30.0 30.0)
  end
  begin
     id 13 
     name thorax
     direction 0.0106671 0.999301 0.0358174   
     length 2.09037   
     axis 0 0 0   XYZ
    dof rx ry rz
    limits (-20.0 45.0)
           (-30.0 30.0)
           (-30.0 30.0)
  end
  begin
     id 14 
     name lowerneck
     direction -0.0580016 0.987052 0.149546   
     length 1.84454   
     axis 0 0 0   XYZ
    dof rx ry rz
    limits (-20.0 45.0)
           (-30.0 30.0)
           (-30.0 30.0)
  end
  begin
     id 15 
     name upperneck
     direction 0.079456 0.981963 -0.171567   
     length 1.88141   
     axis 0 0 0   XYZ
    dof rx ry rz
    limits (-20.0 45.0)
           (-30.0 30.0)
           (-30.0 30.0)
  end
  begin
     id 16
     name head
     direction 0.0262167 0.9967 -0.0768276  
     length 1.89541  
     axis 0 0 0   XYZ
    dof rx ry rz
    limits (-20.0 45.0)
           (-30.0 30.0)
           (-30.0 30.0)
  end
  begin
     id 17 
     name lclavicle
     direction 0.946135 0.322134 -0.0325326  
     length 3.949  
     axis 0 0 0   XYZ
    dof ry rz
    limits (-20.0 10.0)
           (0.0 20.0)
  end
  begin
     id 18 
     name lhumerus
     direction 1 -4.48964e-011 1.94005e-028   
     length 5.10995   
     axis 180 -30 -90   XYZ
    dof rx ry rz
    limits (-60.0 90.0)
           (-90.0 90.0)
           (-90.0 90.0)
  end
  begin
     id 19
     name lradius
     direction 1 -4.48976e-011 2.87852e-027   
     length 3.21207   
     axis 180 -30 -90   XYZ
    dof rx
    limits (-10.0 170.0)
  end
  begin
     id 20
     name lwrist
     direction 1 -4.48963e-011 1.9975e-027   
     length 1.60604   
     axis 2.96054e-016 90 90   XYZ
    dof ry
    limits (-180.0 0.0)
 end
  begin
     id 21 
     name lhand
     direction 1 -4.48919e-011 4.00227e-027   
     length 0.63349   
     axis -2.5488e-015 90 90   XYZ
    dof rx rz
    limits (-90.0 90.0)
           (-45.0 45.0)
  end
  begin
     id 22 
     name lfingers
     direction 1 -4.49037e-011 7.9652e-027   
     length 0.510736   
     axis -5.0975e-015 90 90   XYZ
    dof rx
    limits (0.0 90.0)
  end
  begin
     id 23
     name lthumb
     direction 0.707107 -6.34922e-011 0.707107   
     length 0.733318   
     axis -90 45 -4.48553e-014   XYZ
    dof rx rz
    limits (-45.0 45.0)
           (-45.0 45.0)
  end
  begin
     id 24 
     name rclavicle
     direction -0.940085 0.328911 -0.0897654   
     length 3.93848  
     axis 0 0 0   XYZ 
    dof ry rz
    limits (-10.0 20.0)
           (-20.0 0.0)
  end
  begin
     id 25 
     name rhumerus
     direction -1 -4.48958e-011 3.02044e-027  
     length 5.25109   
     axis 180 30 90   XYZ
    dof rx ry rz
    limits (-90.0 60.0)
           (-90.0 90.0)
           (-90.0 90.0)
  end
  begin
     id 26 
     name rradius
     direction -1 -4.4897e-011 9.78352e-028   
     length 3.28364   
     axis 180 30 90   XYZ
    dof rx
    limits (-10.0 170.0)
  end
  begin
     id 27 
     name rwrist
     direction -1 -4.48943e-011 1.99918e-027   
     length 1.64182   
     axis 2.96054e-016 -90 -90   XYZ
    dof ry
    limits (-180.0 0.0)
  end
  begin
     id 28
     name rhand
     direction -1 -4.49024e-011 3.98478e-027   
     length 0.599745   
     axis -2.5488e-015 -90 -90   XYZ
    dof rx rz
    limits (-90.0 90.0)
           (-45.0 45.0)
  end
  begin
     id 29
     name rfingers
     direction -1 -4.48914e-011 8.00621e-027   
     length 0.48353   
     axis -5.0975e-015 -90 -90   XYZ
    dof rx
    limits (0.0 90.0)
  end
  begin
     id 30
     name rthumb
     direction -0.707107 -6.34992e-011 0.707107   
     length 0.694255   
     axis -90 -45 4.48553e-014   XYZ
    dof rx rz
    limits (-45.0 45.0)
           (-45.0 45.0)
  end
:hierarchy
  begin
    root lhipjoint rhipjoint lowerback
    lhipjoint lfemur
    lfemur ltibia
    ltibia lfoot
    lfoot ltoes
    rhipjoint rfemur
    rfemur rtibia
    rtibia rfoot
    rfoot rtoes
    lowerback upperback
    upperback thorax
    thorax lowerneck lclavicle rclavicle
    lowerneck upperneck
    upperneck head
    lclavicle lhumerus
    lhumerus lradius
    lradius lwrist
    lwrist lhand lthumb
    lhand lfingers
    rclavicle rhumerus
    rhumerus rradius
    rradius rwrist
    rwrist rhand rthumb
    rhand rfingers
  end

#!OML:ASF E:\CV Data\Top Level 1\Subject 1\Session 1\player.ASF
:FULLY-SPECIFIED
:DEGREES
74
root 10.0153 16.7932 -9.02529 -170.36 -76.8664 -179.799
lowerback 16.8325 0.829069 0.79955
upperback 4.43968 0.979358 0.545447
thorax -4.68312 0.359161 -0.0674917
lowerneck -15.2701 17.1905 -2.77801
upperneck 10.9785 23.7562 -0.348594
head 5.45601 11.4445 2.34678
rclavicle 4.96962e-016 -1.90833e-014
rhumerus -12.8212 8.64431 -73.9098
rradius 125.735
rwrist -24.9136
rhand -33.8898 12.9567
rfingers 7.12502
rthumb -7.0732 -16.9051
lclavicle 4.96962e-016 -1.90833e-014
lhumerus 48.519 -65.6877 68.3059
lradius 66.0806
lwrist -2.31172
lhand -32.7057 2.14686
lfingers 7.12502
lthumb -5.9301 32.0439
rfemur -38.1973 2.91814 14.0089
rtibia 50.4642
rfoot -21.3256 -1.20666
rtoes -4.611
lfemur -26.0669 15.0054 -7.88613
ltibia 36.9918
lfoot -12.0002 3.7608
ltoes -10.82
75
root 10.019 16.7944 -9.03947 -170.458 -77.0765 -179.684
lowerback 16.8677 0.822208 0.84595
upperback 4.44359 0.980101 0.579563
thorax -4.69749 0.358989 -0.0582298
lowerneck -15.2834 17.2101 -2.77154
upperneck 11.026 23.797 -0.431472
head 5.48422 11.455 2.33203
rclavicle 2.28602e-014 1.88845e-014
rhumerus -12.7778 8.70505 -73.9322
rradius 125.699
rwrist -24.7914
rhand -34.0075 13.0788
rfingers 7.12502
rthumb -7.18684 -16.7792
lclavicle 2.28602e-014 1.88845e-014
lhumerus 48.4176 -65.563 68.4609
lradius 66.0124
lwrist -2.38943
lhand -32.6694 1.9594
lfingers 7.12502
lthumb -5.89508 31.8574
rfemur -38.1751 2.72074 14.13
rtibia 50.4683
rfoot -21.333 -1.23202
rtoes -4.62005
lfemur -26.1412 14.7539 -7.80056
ltibia 36.9772
lfoot -11.9365 3.83279
ltoes -10.5423
76
root 10.0226 16.7961 -9.05269 -170.568 -77.3008 -179.557
lowerback 16.9059 0.812531 0.902462
upperback 4.44436 0.978929 0.609096
thorax -4.71653 0.357864 -0.0591928
lowerneck -15.2999 17.2189 -2.78268
upperneck 11.0615 23.8196 -0.470254
head 5.5016 11.4604 2.32867
rclavicle -2.34566e-014 6.75868e-015
rhumerus -12.7584 8.76163 -73.9877
rradius 125.634
rwrist -24.6539
rhand -34.1328 13.203
rfingers 7.12502
rthumb -7.30774 -16.6508
lclavicle -2.34566e-014 6.75868e-015
lhumerus 48.2578 -65.4467 68.6629
lradius 65.9212
lwrist -2.46266
lhand -32.6403 1.76162
lfingers 7.12502
lthumb -5.86694 31.6604
rfemur -38.1472 2.49798 14.2547
rtibia 50.4652
rfoot -21.3371 -1.2562
rtoes -4.6357
lfemur -26.2216 14.4794 -7.71575
ltibia 36.9636
lfoot -11.8699 3.91305
ltoes -10.2571
77
root 10.0259 16.7982 -9.06492 -170.671 -77.5423 -179.44
lowerback 16.9449 0.801312 0.970349
upperback 4.44603 0.977245 0.630228
thorax -4.7347 0.356413 -0.0753701
lowerneck -15.3148 17.2187 -2.78268
upperneck 11.0778 23.8247 -0.496076
head 5.51246 11.4596 2.32483
rclavicle 2.18663e-015 3.97569e-016
rhumerus -12.7629 8.80648 -74.0746
rradius 125.543
rwrist -24.5296
rhand -34.2746 13.3417
rfingers 7.12502
rthumb -7.44459 -16.5074
lclavicle 2.18663e-015 3.97569e-016
lhumerus 48.0665 -65.345 68.8776
lradius 65.8166
lwrist -2.52711
lhand -32.6162 1.56808
lfingers 7.12502
lthumb -5.84363 31.4675
rfemur -38.1096 2.24595 14.3782
rtibia 50.4561
rfoot -21.3406 -1.27946
rtoes -4.65341
lfemur -26.3057 14.1895 -7.63713
ltibia 36.9498
lfoot -11.8014 3.98791
ltoes -9.94411
78
root 10.0289 16.8004 -9.07614 -170.791 -77.803 -179.31
lowerback 16.9845 0.786713 1.0537
upperback 4.45072 0.973362 0.646589
thorax -4.7496 0.353728 -0.104878
lowerneck -15.3275 17.2104 -2.77759
upperneck 11.0683 23.8147 -0.511312
head 5.51412 11.4538 2.32014
rclavicle -1.05356e-014 -1.47101e-014
rhumerus -12.7889 8.84754 -74.1851
rradius 125.433
rwrist -24.45
rhand -34.4243 13.5017
rfingers 7.12502
rthumb -7.58909 -16.3421
lclavicle -1.05356e-014 -1.47101e-014
lhumerus 47.8429 -65.2505 69.1111
lradius 65.6936
lwrist -2.58934
lhand -32.5839 1.36819
lfingers 7.12502
lthumb -5.81248 31.2685
rfemur -38.0597 1.96423 14.5058
rtibia 50.4406
rfoot -21.3425 -1.30264
rtoes -4.67273
lfemur -26.3925 13.8964 -7.56043
ltibia 36.9357
lfoot -11.7319 4.04501
ltoes -9.63213
79
root 10.0317 16.8029 -9.08661 -170.953 -78.0832 -179.143
lowerback 17.023 0.767384 1.16596
upperback 4.45985 0.967265 0.650263
thorax -4.75836 0.349719 -0.163674
lowerneck -15.3474 17.1965 -2.7467
upperneck 11.0445 23.7901 -0.517735
head 5.51432 11.4431 2.31379
rclavicle 3.20043e-014 -2.62396e-014
rhumerus -12.8394 8.88277 -74.3353
rradius 125.308
rwrist -24.4236
rhand -34.5864 13.6842
rfingers 7.12502
rthumb -7.74561 -16.154
lclavicle 3.20043e-014 -2.62396e-014
lhumerus 47.6105 -65.1672 69.327
lradius 65.5526
lwrist -2.64215
lhand -32.5333 1.16022
lfingers 7.12502
lthumb -5.76362 31.0618
rfemur -37.9974 1.65912 14.6433
rtibia 50.4192
rfoot -21.3446 -1.32817
rtoes -4.67931
lfemur -26.4815 13.6079 -7.4785
ltibia 36.9201
lfoot -11.6601 4.07336
ltoes -9.32903
80
root 10.0344 16.8056 -9.096 -171.179 -78.3845 -178.916
lowerback 17.0643 0.748525 1.29612
upperback 4.47295 0.964791 0.656857
thorax -4.76409 0.347266 -0.230276
lowerneck -15.3828 17.17 -2.72916
upperneck 11.0198 23.7472 -0.495747
head 5.51166 11.4251 2.31616
rclavicle -1.2921e-014 -1.39149e-014
rhumerus -12.9144 8.91377 -74.4966
rradius 125.169
rwrist -24.4504
rhand -34.7484 13.8907
rfingers 7.12502
rthumb -7.90195 -15.9416
lclavicle -1.2921e-014 -1.39149e-014
lhumerus 47.3665 -65.092 69.5537
lradius 65.3849
lwrist -2.69276
lhand -32.4626 0.936437
lfingers 7.12502
lthumb -5.6954 30.8399
rfemur -37.9212 1.33358 14.7936
rtibia 50.3914
rfoot -21.3457 -1.36202
rtoes -4.68921
lfemur -26.5704 13.3057 -7.38577
ltibia 36.9028
lfoot -11.5851 4.09028
ltoes -9.06861
81
root 10.0369 16.8084 -9.10445 -171.425 -78.7038 -178.675
lowerback 17.1097 0.734382 1.41621
upperback 4.48752 0.967418 0.674522
thorax -4.77076 0.347312 -0.280541
lowerneck -15.4278 17.1329 -2.71776
upperneck 11.0029 23.6921 -0.472715
head 5.5124 11.4006 2.31992
rclavicle 1.70955e-014 3.02153e-014
rhumerus -13.0167 8.95116 -74.6558
rradius 125.023
rwrist -24.5091
rhand -34.9055 14.0879
rfingers 7.12502
rthumb -8.05353 -15.7386
lclavicle 1.70955e-014 3.02153e-014
lhumerus 47.1033 -65.0194 69.8175
lradius 65.1772
lwrist -2.73271
lhand -32.3883 0.680019
lfingers 7.12502
lthumb -5.62361 30.5854
rfemur -37.8334 0.998203 14.9422
rtibia 50.3588
rfoot -21.3458 -1.4083
rtoes -4.70055
lfemur -26.6558 12.9871 -7.29011
ltibia 36.8804
lfoot -11.5101 4.08814
ltoes -8.81311
82
root 10.039 16.8113 -9.11172 -171.725 -79.0331 -178.384
lowerback 17.1577 0.730135 1.51885
upperback 4.50204 0.981367 0.714911
thorax -4.77946 0.352944 -0.299255
lowerneck -15.4751 17.0865 -2.71456
upperneck 10.9959 23.6284 -0.460753
head 5.51741 11.37 2.32183
rclavicle -2.28602e-014 -2.38542e-015
rhumerus -13.1466 8.99602 -74.7955
rradius 124.871
rwrist -24.5636
rhand -35.0466 14.2437
rfingers 7.12502
rthumb -8.18972 -15.5775
lclavicle -2.28602e-014 -2.38542e-015
lhumerus 46.8164 -64.9535 70.1234
lradius 64.939
lwrist -2.74517
lhand -32.3433 0.361324
lfingers 7.12502
lthumb -5.58015 30.2679
rfemur -37.7356 0.669653 15.0912
rtibia 50.3225
rfoot -21.346 -1.47225
rtoes -4.72368
lfemur -26.7344 12.6729 -7.18718
ltibia 36.851
lfoot -11.4371 4.05788
ltoes -8.57902
83
root 10.0407 16.8142 -9.11828 -171.999 -79.3741 -178.116
lowerback 17.2016 0.739496 1.57075
upperback 4.51266 1.00648 0.785226
thorax -4.79148 0.364435 -0.259863
lowerneck -15.5112 17.0314 -2.7161
upperneck 10.9935 23.5595 -0.483751
head 5.52621 11.3337 2.31392
rclavicle -1.78906e-015 5.1684e-015
rhumerus -13.3042 9.05419 -74.9023
rradius 124.714
rwrist -24.576
rhand -35.1686 14.3432
rfingers 7.12502
rthumb -8.30747 -15.4735
lclavicle -1.78906e-015 5.1684e-015
lhumerus 46.5033 -64.8988 70.4815
lradius 64.6695
lwrist -2.73225
lhand -32.3729 0.0130919
lfingers 7.12502
lthumb -5.60878 29.9189
rfemur -37.6384 0.357059 15.2227
rtibia 50.2866
rfoot -21.3459 -1.56243
rtoes -4.76595
lfemur -26.8156 12.3696 -7.0935
ltibia 36.8126
lfoot -11.3671 3.99039
ltoes -8.35663
84
root 10.042 16.8172 -9.12422 -172.222 -79.7344 -177.896
lowerback 17.2367 0.75609 1.58525
upperback 4.51812 1.03611 0.874042
thorax -4.80535 0.378546 -0.180601
lowerneck -15.5208 16.9711 -2.70646
upperneck 10.9717 23.4858 -0.547508
head 5.53129 11.2931 2.29004
rclavicle -2.3059e-014 -1.23246e-014
rhumerus -13.4915 9.1182 -74.9962
rradius 124.552
rwrist -24.5322
rhand -35.2636 14.391
rfingers 7.12502
rthumb -8.39914 -15.422
lclavicle -2.3059e-014 -1.23246e-014
lhumerus 46.1734 -64.8625 70.8569
lradius 64.3813
lwrist -2.70049
lhand -32.5016 -0.330714
lfingers 7.12502
lthumb -5.73303 29.5717
rfemur -37.5446 0.0604522 15.3294
rtibia 50.2529
rfoot -21.3479 -1.67751
rtoes -4.81534
lfemur -26.9055 12.0874 -7.01751
ltibia 36.7641
lfoot -11.3003 3.87762
ltoes -8.18327
85
root 10.0429 16.82 -9.12922 -172.366 -80.1209 -177.744
lowerback 17.2509 0.772758 1.57668
upperback 4.52045 1.06257 0.972051
thorax -4.81225 0.391536 -0.0776837
lowerneck -15.5044 16.9096 -2.66927
upperneck 10.9323 23.4102 -0.659185
head 5.53588 11.2497 2.24702
rclavicle 2.68359e-014 -1.63003e-014
rhumerus -13.7005 9.18516 -75.0878
rradius 124.387
rwrist -24.4312
rhand -35.3273 14.3909
rfingers 7.12502
rthumb -8.46063 -15.4196
lclavicle 2.68359e-014 -1.63003e-014
lhumerus 45.8498 -64.8488 71.2023
lradius 64.096
lwrist -2.64285
lhand -32.7284 -0.645557
lfingers 7.12502
lthumb -5.95196 29.2508
rfemur -37.4603 -0.222835 15.4054
rtibia 50.2241
rfoot -21.3534 -1.81323
rtoes -4.84455
lfemur -27.0137 11.8458 -6.96875
ltibia 36.7042
lfoot -11.236 3.7033
ltoes -8.05403
